<svg width="104" height="41" viewBox="0 0 104 41" fill="none" xmlns="http://www.w3.org/2000/svg">
<path d="M5.625 36.8803V37.1867H6.90841V40.7553H7.79583V37.1867H9.07898V36.4142H6.0719C5.823 36.4142 5.625 36.6311 5.625 36.8803ZM13.5781 40.7553H16.7192V39.9572H14.4528V38.8336H15.685C15.9979 38.8336 16.1511 38.6868 16.1447 38.3867V38.0995H14.4528V37.1675H16.7192V36.4142H14.025C13.725 36.4206 13.5781 36.5802 13.5781 36.8803V40.7553ZM25.0617 39.2486H24.1999C24.1042 39.7274 23.785 40.0339 23.2296 40.0339C22.4187 40.0339 22.0677 39.4338 22.0677 38.5847C22.0677 37.7101 22.4315 37.1292 23.2549 37.1292C23.6765 37.1292 23.9638 37.2888 24.1106 37.6016C24.1935 37.7741 24.3339 37.8633 24.5255 37.8633H25.0617C25.017 37.3909 24.8445 37.0143 24.5383 36.7398C24.2127 36.4717 23.785 36.3438 23.2549 36.3438C21.8825 36.3438 21.1803 37.1867 21.1803 38.5847C21.1803 39.9382 21.8441 40.8192 23.1784 40.8192C24.2764 40.8192 24.9788 40.2508 25.0617 39.2486ZM29.5548 36.8803V40.7553H30.4549V38.8336H32.2362V40.7553H33.1364V36.4142H32.2362V38.0358H30.4549V36.4142H30.0016C29.7527 36.4142 29.5548 36.6311 29.5548 36.8803ZM37.623 36.8803V40.7553H38.4976V37.7741L40.2661 40.7553H41.1918V36.4142H40.3172V39.3954L38.5488 36.4142H38.0699C37.821 36.4142 37.623 36.6311 37.623 36.8803ZM47.7595 37.1164C48.5704 37.1164 48.9534 37.7293 48.9534 38.5847C48.9534 39.4594 48.5704 40.0723 47.7595 40.0723C46.9488 40.0723 46.5723 39.4338 46.5723 38.5847C46.5723 37.7421 46.9488 37.1164 47.7595 37.1164ZM47.7595 40.8192C49.081 40.8192 49.8408 39.919 49.8408 38.5847C49.8408 37.2696 49.0554 36.3438 47.7595 36.3438C46.4699 36.3438 45.6849 37.2568 45.6849 38.5847C45.6849 39.9127 46.4382 40.8192 47.7595 40.8192ZM56.1534 40.0851C55.5852 40.0851 55.2916 39.8551 55.2596 39.3954H54.3978C54.4233 40.3404 55.0043 40.8192 56.1534 40.8192C57.2513 40.8192 57.8259 40.3977 57.877 39.5486C57.9026 38.9997 57.6727 38.6423 57.1876 38.4763C56.8236 38.3486 56.479 38.2527 56.1534 38.1762C55.5852 38.0486 55.3108 37.8506 55.3108 37.5761C55.3299 37.244 55.5597 37.0716 56.0193 37.0652C56.3959 37.0652 56.6576 37.1867 56.8044 37.4356C56.8876 37.6016 57.0152 37.6909 57.2004 37.6909H57.6982C57.6473 36.7907 57.1173 36.3438 56.0958 36.3438C55.0235 36.3374 54.4806 36.7843 54.4617 37.6973C54.4617 38.2719 54.883 38.6676 55.7321 38.8848C56.0449 38.9677 56.3386 39.0444 56.5939 39.1209C56.862 39.1977 56.9896 39.3381 56.9896 39.5486C56.996 39.9063 56.7215 40.0851 56.1534 40.0851ZM64.413 37.1164C65.2239 37.1164 65.6069 37.7293 65.6069 38.5847C65.6069 39.4594 65.2239 40.0723 64.413 40.0723C63.6023 40.0723 63.2258 39.4338 63.2258 38.5847C63.2258 37.7421 63.6023 37.1164 64.413 37.1164ZM64.413 40.8192C65.7345 40.8192 66.4943 39.919 66.4943 38.5847C66.4943 37.2696 65.7089 36.3438 64.413 36.3438C63.1234 36.3438 62.3384 37.2568 62.3384 38.5847C62.3384 39.9127 63.0917 40.8192 64.413 40.8192ZM73.5603 38.3867V38.0995H71.8619V37.1675H74.1284V36.4142H71.4342C71.1853 36.4142 70.9873 36.6311 70.9873 36.8803V40.7553H71.8619V38.8336H73.0942C73.3431 38.8336 73.5603 38.6359 73.5603 38.3867ZM78.5767 36.8803V37.1867H79.8601V40.7553H80.7475V37.1867H82.0306V36.4142H79.0236C78.7747 36.4142 78.5767 36.6311 78.5767 36.8803Z" fill="#08A1E0"/>
<path d="M78.2134 11.1476C80.607 11.1476 81.8256 11.8005 81.9562 13.1061C81.9562 14.3682 80.6941 15.1082 78.2134 15.4128C72.381 15.9788 68.3767 17.4587 68.2461 22.9862C68.2461 28.0783 72.0764 30.6465 77.6039 30.2113C83.8278 29.7758 87.658 26.9468 87.658 20.5923V12.758C87.5275 8.4926 84.3067 6.40332 77.9519 6.40332C72.6421 6.40332 69.639 8.4926 68.9427 12.758H74.7314C75.036 11.67 76.1675 11.1476 78.2134 11.1476ZM76.8639 25.5104C75.036 25.5104 74.0785 24.64 73.9479 22.8122C73.9479 21.1146 75.1229 20.0266 77.4299 19.5911C79.1272 19.2431 80.6941 18.7642 82.0434 18.1984V20.3312C82.0434 23.5954 80.0847 25.5104 76.8639 25.5104Z" fill="#08A1E0"/>
<path d="M31.1641 29.7762H37.0396V17.807C37.0396 14.4556 38.65 12.7584 41.8708 12.7584H43.8295V6.75195H43.0026C35.2989 6.75195 31.3381 10.4514 31.1641 17.8942V29.7762Z" fill="#08A1E0"/>
<path d="M12.7526 0.179688C11.2728 0.179688 10.3153 0.832588 9.88012 2.13839L0 29.7761H6.48504L8.44374 23.7262H19.8906L21.8493 29.7761H28.2472L17.6273 0.179688H12.7526ZM14.1019 6.1424L18.1933 18.721H10.0541L14.1019 6.1424Z" fill="#08A1E0"/>
<path d="M46.5278 29.7758V16.2397C46.4841 9.66783 49.7049 6.40332 56.2771 6.40332L56.3421 6.40385L56.4071 6.40332C62.9793 6.40332 66.2001 9.66783 66.1566 16.2397V29.7758H63.197C61.282 29.6452 60.3242 28.7315 60.3242 26.9033V15.0648C60.1942 12.6778 58.8956 11.5026 56.3421 11.4959C53.7888 11.5026 52.4902 12.6778 52.3599 15.0648V26.9033C52.3599 28.7315 51.4024 29.6452 49.4874 29.7758H46.5278Z" fill="#08A1E0"/>
<path fill-rule="evenodd" clip-rule="evenodd" d="M88.4609 6.44994V6.45021C88.4609 7.22516 89.0893 7.85328 89.864 7.85328H96.2696V14.2589C96.2696 15.0339 96.898 15.662 97.6727 15.662C98.4477 15.662 99.076 15.0339 99.076 14.2589V5.04688H89.864C89.0893 5.04688 88.4609 5.67526 88.4609 6.44994Z" fill="#08A1E0"/>
<path fill-rule="evenodd" clip-rule="evenodd" d="M93.1445 1.58302C93.1445 2.35798 93.7729 2.98609 94.5476 2.98609H100.953V9.39172C100.953 10.1667 101.582 10.7948 102.357 10.7948C103.132 10.7948 103.76 10.1667 103.76 9.39172V0.179688H94.5476C93.7729 0.179688 93.1445 0.808069 93.1445 1.58302Z" fill="#08A1E0"/>
<path fill-rule="evenodd" clip-rule="evenodd" d="M91.9897 13.7476C91.098 13.7476 90.375 13.0249 90.375 12.1332C90.375 11.2415 91.098 10.5186 91.9897 10.5186C92.8813 10.5186 93.6043 11.2415 93.6043 12.1332C93.6043 13.0249 92.8813 13.7476 91.9897 13.7476Z" fill="#08A1E0"/>
</svg>
